<?xml version="1.0" standalone="no"?>
<!DOCTYPE svg PUBLIC "-//W3C//DTD SVG 20010904//EN"
 "http://www.w3.org/TR/2001/REC-SVG-20010904/DTD/svg10.dtd">
<svg version="1.0" xmlns="http://www.w3.org/2000/svg"
 width="1000.000000pt" height="1080.000000pt" viewBox="0 0 1000.000000 1080.000000"
 preserveAspectRatio="xMidYMid meet">
<metadata>
Created by potrace 1.16, written by Peter Selinger 2001-2019
</metadata>
<g transform="translate(0.000000,1080.000000) scale(0.100000,-0.100000)"
fill="#000000" stroke="none">
<path d="M5075 8599 c-386 -41 -710 -338 -789 -721 -11 -52 -16 -131 -16 -243
l0 -167 -32 7 c-67 15 -256 75 -338 109 -57 23 -86 31 -89 23 -3 -7 -23 -112
-45 -235 l-41 -222 -200 -219 c-157 -173 -205 -220 -225 -220 -34 -1 -50 -18
-50 -53 0 -49 66 -62 90 -18 6 10 9 27 7 37 -2 22 356 418 361 398 1 -6 -65
-391 -148 -856 -165 -920 -209 -1166 -265 -1482 -21 -114 -35 -210 -33 -213 3
-2 83 7 179 21 96 13 433 61 749 105 316 44 715 100 885 125 171 24 367 51
437 61 71 9 127 18 125 20 -2 2 -263 -13 -1724 -99 -294 -17 -383 -19 -383
-10 0 10 108 507 481 2208 39 176 72 321 74 323 4 4 61 -8 148 -29 l37 -10 0
-93 c0 -70 -4 -97 -15 -106 -19 -16 -34 -71 -28 -104 12 -63 94 -102 151 -72
70 36 83 111 31 170 l-31 36 4 377 c4 349 6 383 26 448 30 101 57 159 108 236
138 208 358 337 605 355 359 27 689 -194 812 -544 30 -83 31 -95 35 -279 l4
-191 -53 -11 c-79 -16 -315 -48 -464 -63 -265 -26 -758 -11 -972 28 l-33 6 0
-110 c0 -97 2 -111 18 -116 9 -3 73 -12 142 -20 442 -55 947 -47 1328 20 l32
6 0 -78 c0 -68 -3 -81 -19 -91 -22 -14 -43 -75 -34 -101 13 -43 28 -62 61 -78
70 -33 152 19 152 96 0 22 -8 48 -19 62 -18 23 -20 48 -24 424 -4 376 -5 404
-26 479 -124 442 -535 723 -986 674z"/>
<path d="M6528 7605 c-20 -8 -112 -33 -203 -56 l-165 -42 0 -129 c0 -119 1
-129 18 -124 57 17 114 28 119 22 6 -5 -153 -2618 -161 -2658 -2 -10 0 -18 4
-18 4 0 61 20 126 45 l117 44 426 -129 c234 -72 428 -129 431 -128 3 2 -47
255 -112 563 -64 308 -206 981 -314 1495 -107 514 -205 979 -216 1033 -12 53
-24 97 -27 96 -3 0 -23 -7 -43 -14z"/>
<path d="M2951 6657 c-102 -112 -186 -208 -188 -214 -2 -6 78 -86 178 -178
147 -134 184 -164 194 -153 6 7 88 96 181 198 93 102 175 193 182 202 12 15 8
33 -24 123 -20 58 -40 105 -45 105 -14 0 -49 -57 -49 -80 0 -29 -52 -80 -82
-80 -56 0 -95 57 -77 110 11 29 52 60 82 60 7 0 26 13 41 29 l27 28 -105 27
c-58 14 -111 26 -118 26 -7 -1 -96 -92 -197 -203z"/>
<path d="M5395 6645 c-85 -29 -145 -135 -145 -254 0 -174 122 -298 247 -250
82 30 133 130 133 258 0 67 -4 87 -30 138 -48 96 -124 135 -205 108z m-20
-131 c8 -4 22 -19 30 -35 46 -89 -28 -217 -88 -151 -41 45 -43 118 -5 167 20
26 34 30 63 19z"/>
<path d="M4633 6570 c-68 -41 -110 -145 -100 -250 15 -174 163 -204 240 -49
53 105 45 223 -18 286 -39 39 -74 43 -122 13z"/>
<path d="M4225 5828 c-31 -17 -45 -39 -45 -74 0 -64 196 -213 375 -285 233
-93 537 -93 770 0 124 50 285 154 334 217 36 45 26 95 -21 120 -40 21 -66 13
-130 -42 -156 -134 -350 -204 -568 -204 -217 0 -419 73 -566 203 -89 79 -109
87 -149 65z"/>
<path d="M3910 3802 c0 -10 -108 -576 -117 -609 -5 -22 -3 -23 59 -23 l64 0
58 303 c31 166 60 310 62 320 5 15 -3 17 -60 17 -36 0 -66 -4 -66 -8z"/>
<path d="M5965 3788 c-6 -29 -115 -608 -115 -614 0 -3 28 -4 62 -2 l62 3 23
118 c24 128 45 180 85 210 34 26 75 16 84 -18 3 -14 -6 -87 -20 -163 -14 -76
-26 -141 -26 -145 0 -5 28 -7 62 -5 l62 3 29 159 c31 173 30 210 -8 253 -20
24 -30 28 -78 27 -43 0 -64 -6 -96 -27 -23 -15 -41 -23 -41 -17 0 5 9 56 20
112 11 57 20 109 20 116 0 8 -19 12 -60 12 -54 0 -60 -2 -65 -22z"/>
<path d="M2957 3779 c-108 -16 -206 -98 -248 -207 -26 -68 -35 -181 -20 -238
16 -61 63 -118 118 -145 70 -35 180 -33 257 5 111 54 175 163 184 314 5 92
-10 150 -55 203 -48 56 -137 82 -236 68z m118 -132 c41 -41 52 -91 37 -174
-22 -131 -74 -193 -167 -201 -70 -6 -109 26 -126 103 -23 103 33 248 111 287
57 29 106 24 145 -15z"/>
<path d="M5563 3756 c-69 -33 -107 -88 -107 -159 -1 -68 24 -103 117 -165 81
-54 93 -69 83 -105 -14 -56 -125 -74 -205 -34 l-30 15 -21 -51 c-18 -40 -19
-51 -8 -58 53 -35 207 -43 273 -15 82 35 125 96 125 177 0 68 -24 105 -96 149
-63 38 -114 82 -114 99 0 5 10 22 23 36 27 31 78 41 132 26 22 -6 45 -10 50
-9 7 1 45 80 45 95 0 10 -79 23 -139 23 -59 0 -87 -6 -128 -24z"/>
<path d="M3563 3609 c-17 -5 -45 -23 -62 -40 l-31 -31 0 36 0 36 -54 0 -54 0
-7 -52 c-4 -29 -20 -120 -36 -203 -16 -82 -29 -158 -29 -167 0 -15 10 -18 60
-18 33 0 60 1 60 3 0 28 52 252 64 275 18 35 62 72 85 72 46 0 52 -55 21 -205
-31 -148 -31 -145 40 -145 33 0 60 1 60 3 0 2 11 61 25 132 26 138 32 234 15
266 -23 42 -88 58 -157 38z"/>
<path d="M4540 3605 c-19 -9 -48 -28 -64 -43 l-29 -27 6 38 6 37 -55 0 c-35 0
-56 -4 -58 -12 -2 -7 -18 -94 -36 -193 -17 -99 -34 -193 -37 -208 l-6 -28 64
3 63 3 22 116 c23 123 49 188 86 213 32 23 55 20 73 -8 15 -23 14 -35 -9 -164
-14 -77 -26 -145 -26 -151 0 -7 22 -11 59 -11 70 0 61 -17 97 179 28 155 27
195 -9 237 -29 33 -96 41 -147 19z"/>
<path d="M4968 3608 c-48 -13 -123 -79 -150 -132 -14 -28 -23 -65 -25 -116 -3
-64 -1 -81 19 -115 33 -58 84 -80 178 -79 44 1 91 8 112 17 35 15 37 17 31 54
-3 21 -7 39 -8 41 -2 2 -24 -2 -49 -9 -62 -15 -126 -6 -148 21 -32 39 -23 47
58 54 94 9 146 29 180 69 23 27 26 38 22 84 -9 101 -95 144 -220 111z"/>
<path d="M6540 3601 c-181 -64 -231 -337 -77 -418 47 -25 151 -22 203 4 50 26
97 74 121 122 25 53 30 169 7 216 -38 81 -147 114 -254 76z m122 -98 c41 -37
12 -188 -43 -227 -24 -17 -66 -21 -85 -8 -51 34 -41 161 17 223 31 34 81 39
111 12z"/>
<path d="M7120 3605 c-19 -9 -45 -26 -57 -37 l-23 -21 0 31 c0 32 0 32 -54 32
l-54 0 -6 -52 c-4 -29 -28 -167 -55 -306 -26 -139 -46 -254 -45 -255 1 -1 29
0 62 1 l60 4 17 89 c17 88 18 89 44 81 164 -46 323 107 308 295 -5 67 -22 103
-62 129 -35 23 -94 27 -135 9z m51 -106 c18 -18 21 -29 16 -74 -10 -97 -62
-165 -127 -165 -55 0 -62 14 -45 92 16 80 36 119 71 147 34 27 58 27 85 0z"/>
<path d="M4076 3418 c-20 -106 -39 -205 -42 -220 l-6 -28 64 0 64 0 38 208
c21 114 41 213 43 220 4 9 -12 12 -60 12 l-64 0 -37 -192z"/>
<path d="M0 400 l0 -400 5000 0 5000 0 0 400 0 400 -5000 0 -5000 0 0 -400z
m1395 106 c25 -11 33 -19 29 -30 -7 -19 -5 -19 -40 -1 -36 18 -55 19 -78 2
-28 -21 -9 -45 49 -62 87 -25 108 -74 54 -127 -29 -29 -33 -30 -90 -25 -68 6
-72 8 -64 29 5 13 12 14 40 5 50 -15 100 1 100 33 0 16 -8 28 -25 36 -87 40
-105 51 -108 67 -14 70 53 106 133 73z m587 -48 l3 -62 36 32 c20 18 45 32 55
32 14 0 9 -9 -21 -40 l-39 -40 42 -60 c40 -57 41 -60 20 -60 -16 0 -32 14 -53
45 -16 25 -33 45 -37 45 -5 0 -8 -20 -8 -45 0 -38 -3 -45 -20 -45 -19 0 -20 7
-20 130 0 122 1 130 20 130 16 0 19 -8 22 -62z m-1353 -24 c12 -15 21 -40 21
-55 0 -29 0 -29 -65 -29 -72 0 -83 -12 -44 -51 17 -17 30 -20 65 -16 43 4 59
-5 28 -17 -45 -17 -106 3 -123 41 -45 98 56 206 118 127z m456 3 c20 -16 28
-35 32 -69 5 -42 3 -50 -25 -78 -41 -41 -83 -41 -124 0 -28 28 -30 36 -25 78
9 82 84 119 142 69z m622 8 c30 -21 44 -75 32 -120 -25 -88 -143 -88 -168 0
-20 72 20 135 84 135 17 0 40 -7 52 -15z"/>
<path d="M986 424 c-50 -50 -21 -144 44 -144 48 0 80 50 66 104 -13 53 -75 75
-110 40z"/>
</g>
</svg>
